<svg width="33" height="29" viewBox="0 0 33 29" fill="none" xmlns="http://www.w3.org/2000/svg">
<path d="M4.68 14.22H5.52C5.824 14.22 6.068 14.184 6.252 14.112C6.444 14.032 6.616 13.9 6.768 13.716L12.252 7.344C12.428 7.128 12.608 6.98 12.792 6.9C12.976 6.812 13.204 6.768 13.476 6.768H15.66L9.276 14.112C9.116 14.32 8.956 14.488 8.796 14.616C8.644 14.744 8.484 14.852 8.316 14.94C8.756 15.092 9.14 15.4 9.468 15.864L16.104 24H13.884C13.724 24 13.584 23.988 13.464 23.964C13.352 23.94 13.252 23.908 13.164 23.868C13.084 23.82 13.008 23.764 12.936 23.7C12.872 23.636 12.812 23.56 12.756 23.472L7.08 16.752C7 16.648 6.92 16.56 6.84 16.488C6.76 16.416 6.668 16.36 6.564 16.32C6.46 16.272 6.34 16.24 6.204 16.224C6.068 16.2 5.908 16.188 5.724 16.188H4.68V24H2.124V6.768H4.68V14.22ZM31.2583 15.612V22.332C30.3863 22.956 29.4583 23.424 28.4743 23.736C27.4903 24.04 26.4183 24.192 25.2583 24.192C23.8663 24.192 22.6063 23.976 21.4783 23.544C20.3583 23.112 19.4023 22.508 18.6103 21.732C17.8183 20.956 17.2063 20.028 16.7743 18.948C16.3503 17.868 16.1383 16.68 16.1383 15.384C16.1383 14.08 16.3423 12.888 16.7503 11.808C17.1663 10.72 17.7583 9.792 18.5263 9.024C19.2943 8.248 20.2223 7.648 21.3103 7.224C22.4063 6.792 23.6343 6.576 24.9943 6.576C25.6823 6.576 26.3183 6.628 26.9023 6.732C27.4943 6.836 28.0423 6.984 28.5463 7.176C29.0503 7.368 29.5143 7.6 29.9383 7.872C30.3703 8.136 30.7703 8.436 31.1383 8.772L30.4063 9.924C30.2943 10.108 30.1463 10.224 29.9623 10.272C29.7783 10.32 29.5783 10.276 29.3623 10.14C29.1543 10.02 28.9223 9.88 28.6663 9.72C28.4183 9.56 28.1183 9.412 27.7663 9.276C27.4223 9.14 27.0183 9.024 26.5543 8.928C26.0903 8.832 25.5423 8.784 24.9103 8.784C23.9663 8.784 23.1143 8.94 22.3543 9.252C21.5943 9.556 20.9463 9.996 20.4103 10.572C19.8743 11.148 19.4623 11.844 19.1743 12.66C18.8863 13.468 18.7423 14.376 18.7423 15.384C18.7423 16.44 18.8943 17.388 19.1983 18.228C19.5023 19.06 19.9303 19.768 20.4823 20.352C21.0423 20.928 21.7183 21.368 22.5103 21.672C23.3103 21.976 24.2023 22.128 25.1863 22.128C25.5703 22.128 25.9263 22.108 26.2543 22.068C26.5903 22.02 26.9103 21.956 27.2143 21.876C27.5183 21.796 27.8103 21.696 28.0903 21.576C28.3783 21.456 28.6623 21.324 28.9423 21.18V17.568H26.3983C26.2383 17.568 26.1063 17.52 26.0023 17.424C25.9063 17.328 25.8583 17.208 25.8583 17.064V15.612H31.2583Z" fill="white"/>
</svg>
